<?xml version="1.0" encoding="UTF-8" standalone="no"?>
<!DOCTYPE svg PUBLIC "-//W3C//DTD SVG 20010904//EN"
              "http://www.w3.org/TR/2001/REC-SVG-20010904/DTD/svg10.dtd">

<svg xmlns="http://www.w3.org/2000/svg"
     width="0.888889in" height="0.888889in"
     viewBox="0 0 64 64">
  <path id="Selection"
        fill="none" stroke="black" stroke-width="1"
        d="M 10.00,2.00
           C 15.27,0.50 23.33,0.12 27.89,3.65
             29.75,5.09 32.18,8.04 31.32,10.58
             30.43,13.20 26.31,13.73 24.00,13.38
             17.64,12.43 12.89,7.37 10.00,2.00 Z
           M 35.00,12.00
           C 41.05,12.00 45.91,11.26 50.96,15.39
             63.50,25.64 60.44,48.11 46.00,55.00
             50.12,42.41 50.98,28.81 41.67,18.04
             41.67,18.04 35.00,12.00 35.00,12.00 Z
           M 16.00,14.11
           C 20.85,13.95 21.23,15.39 25.00,15.52
             30.15,15.69 33.97,11.38 40.47,19.09
             49.53,29.84 50.92,60.00 33.00,62.79
             17.71,65.17 -1.18,44.85 7.26,24.00
             9.23,19.13 11.15,16.29 16.00,14.11 Z" />
</svg>
